<?xml version="1.0" standalone="no"?>
<!DOCTYPE svg PUBLIC "-//W3C//DTD SVG 20010904//EN"
 "http://www.w3.org/TR/2001/REC-SVG-20010904/DTD/svg10.dtd">
<svg version="1.0" xmlns="http://www.w3.org/2000/svg"
 width="414.000000pt" height="413.000000pt" viewBox="0 0 414.000000 413.000000"
 preserveAspectRatio="xMidYMid meet">

<g transform="translate(0.000000,413.000000) scale(0.100000,-0.100000)"
fill="#000000" stroke="none">
<path d="M10 3026 c0 -934 2 -1123 15 -1223 89 -687 519 -1286 1140 -1588 779
-380 1701 -237 2323 359 189 182 316 354 428 581 240 487 278 1037 108 1553
-222 675 -768 1182 -1463 1357 -190 47 -285 56 -658 62 l-353 6 0 -422 0 -421
-350 0 -350 0 -2 418 -3 417 -417 3 -418 2 0 -1104z m2288 240 c646 -132 1075
-740 978 -1386 -76 -503 -478 -921 -975 -1014 -326 -61 -655 8 -928 196 -207
141 -382 375 -463 616 -51 153 -60 234 -60 553 l0 289 350 0 350 0 0 386 0
386 333 -4 c258 -4 351 -9 415 -22z"/>
</g>
</svg>
